# xmcd
#
# Track frame offsets: 
#        150
#        23844
#        45200
#        69437
#
# Disc length: 1197 seconds
#
# Revision: 1
# Processed by: cddbd v1.5.1PL2 Copyright (c) Steve Scherf et al.
# Submitted via: ExactAudioCopy v0.90b4
#
DISCID=2504ab04
DTITLE=Various Artist - Get Set
DYEAR=2005
DGENRE=Remix
TTITLE0=Shaheena and Jassi Dhillon/Tirchi Topi (Bhangra Mix)
TTITLE1=Shaheena and Master G/Gora Rang (Jungle Mix)
TTITLE2=Shaheena and Jassi Dhillon/Tirchi Topi (Banjo Mix)
TTITLE3=Shaheena and Master G/Gora Rang (Ragga Mix)
EXTD=YEAR: 2005
EXTT0=
EXTT1=
EXTT2=
EXTT3=
PLAYORDER=
